<?xml version="1.0" encoding="UTF-8"?>
<svg id="_レイヤー_2" data-name="レイヤー 2" xmlns="http://www.w3.org/2000/svg" viewBox="0 0 567.84 409.91">
  <defs>
    <style>
      .cls-1 {
        fill: #f3e73e;
      }

      .cls-1, .cls-2, .cls-3 {
        stroke: #000;
        stroke-miterlimit: 10;
      }

      .cls-2 {
        fill: #fff;
      }

      .cls-3 {
        fill: #a7d113;
      }
    </style>
  </defs>
  <g id="_レイヤー_1-2" data-name="レイヤー 1">
    <g>
      <polygon class="cls-3" points="176.86 409.41 46.73 219.16 176.86 28.91 437.11 28.91 567.24 219.16 437.11 409.41 176.86 409.41"/>
      <polygon class="cls-2" points="130.73 381 .61 190.75 130.73 .5 390.98 .5 521.11 190.75 390.98 381 130.73 381"/>
      <path class="cls-3" d="M95.57,74.82l13.78-3.66c4.5-1.12,9.37-2.06,14.62-2.81,7.69-1.12,13.4-1.22,17.16-.28,8.25,2.25,13.22,7.69,14.91,16.31,1.12,6.19.09,11.81-3.09,16.88-3,4.88-7.41,8.82-13.22,11.81-4.32,2.44-12.85,3.84-25.59,4.22l-2.25-10.69c3-.18,6.09-.37,9.28-.56,3.75-.18,6.84-.56,9.28-1.12,6.75-1.5,11.53-5.25,14.34-11.25,1.5-3,1.69-6.09.56-9.28-1.12-3.19-3.47-5.44-7.03-6.75-3.38-1.31-9.19-1.03-17.44.84-7.5,1.88-15.1,3.94-22.78,6.19l-2.53-9.84Z"/>
      <path class="cls-3" d="M187.23,87.05c.14-.44.63-1.29,1.44-1.82,7.31-5.25,16.12-12.56,26.44-21.94l-7.59-7.31c-4.5,4.69-10.41,9.94-17.72,15.75-3.96,3.11-8.26,6.5-11.79,9.29,3.22,1.72,6.32,3.44,9.23,6.03Z"/>
      <path class="cls-1" d="M188.66,88.88c-.75-.75-1.22-1.31-1.41-1.69-.05-.16-.08.03-.03-.15-2.32-2.4-6.01-4.31-9.23-6.03-1.16.91-1.72,1.36-2.83,2.24-1.69,1.31-2.53,2.81-2.53,4.5,0,1.5,1.41,3.19,4.22,5.06,6.19,4.32,11.9,8.82,17.16,13.5,3.94,3.56,8.44,8.25,13.5,14.06l7.88-8.44c-8.63-8.62-17.53-16.31-26.72-23.06Z"/>
      <path class="cls-3" d="M241.82,98.45c12.75-11.25,22.4-19.87,28.97-25.88-7.88,1.5-14.44,2.35-19.69,2.53l-1.41-9.56c14.06-1.12,25.12-3,33.19-5.62l6.47,7.59c-6.75,6-12.66,11.16-17.72,15.47,10.69-2.43,18.47-1.22,23.34,3.66,3,2.81,4.4,6.38,4.22,10.69,0,3.75-1.22,7.41-3.66,10.97-2.81,4.5-7.59,7.78-14.34,9.84-5.44,1.69-11.63,2.34-18.56,1.97l-1.97-9.56c6.56.56,12.38,0,17.44-1.69,7.31-2.25,10.97-6.09,10.97-11.53,0-2.25-.84-3.94-2.53-5.06-2.25-1.5-4.78-2.15-7.59-1.97-10.31.19-20.63,5.44-30.94,15.75l-6.19-7.59Z"/>
      <path class="cls-3" d="M316.63,82.7c10.31-4.31,18.47-6.93,24.47-7.88,9.94-1.5,16.97-.18,21.09,3.94,3.56,3.75,5.25,8.35,5.06,13.78-.19,5.06-1.88,9.66-5.06,13.78-5.44,7.13-14.53,12-27.28,14.62l-4.22-9c4.31-.56,8.53-1.69,12.66-3.38,4.68-2.06,8.06-4.31,10.12-6.75,2.43-2.81,3.66-6.19,3.66-10.12s-1.88-6.65-5.62-7.59c-6.94-1.5-17.25,1.22-30.94,8.16l-3.94-9.56Z"/>
      <path class="cls-1" d="M330.13,68.35l1.41-9.28c6.93,1.5,15.19,2.72,24.75,3.66l-1.41,9c-8.44-.56-16.69-1.69-24.75-3.38Z"/>
      <path class="cls-3" d="M383.75,123.63c-2.07,0-3.75-.75-5.06-2.25-.94-1.12-1.41-2.43-1.41-3.94s.47-2.9,1.41-4.22c1.12-1.5,2.62-2.25,4.5-2.25,1.87-.18,3.47.38,4.78,1.69,1.31,1.31,1.97,2.81,1.97,4.5.18,1.69-.28,3.19-1.41,4.5-1.12,1.31-2.72,1.97-4.78,1.97Z"/>
      <polygon class="cls-3" points="399.53 74.14 406.92 59.91 417.66 65.49 410.26 79.72 395.31 103.01 388.82 99.63 399.53 74.14"/>
      <path class="cls-3" d="M86.91,207.06c10.69-5.81,18.65-13.03,23.91-21.66h-23.62v-9.56h30.94v-13.78h10.41v13.78h13.22v9.56h-13.22v29.53c0,4.68-2.81,7.03-8.44,7.03h-6.47l-2.81-9.56c1.87,0,3.38-.09,4.5-.28,1.87-.18,2.81-1.22,2.81-3.09v-15.75c-5.62,9-13.97,16.69-25.03,23.06l-6.19-9.28Z"/>
      <rect class="cls-1" x="165.94" y="162.91" width="10.41" height="36"/>
      <path class="cls-3" d="M175.22,214.38c14.44-5.25,21.66-15.65,21.66-31.22v-21.66h10.69v26.16c0,7.5-2.25,14.44-6.75,20.81-4.88,7.13-11.07,11.9-18.56,14.34l-7.03-8.44Z"/>
      <path class="cls-3" d="M230.34,185.41l4.5-8.16c5.81,2.63,11.62,5.34,17.44,8.16l-4.78,9.28c-7.88-4.68-13.6-7.78-17.16-9.28Z"/>
      <path class="cls-3" d="M232.59,212.69c10.5-3.75,19.41-8.34,26.72-13.78,8.06-6,15.28-13.68,21.66-23.06l7.31,8.44c-12,17.06-28.78,30-50.34,38.81l-5.34-10.41Z"/>
      <path class="cls-3" d="M236.53,170.22l5.06-8.44c4.68,1.69,10.78,4.32,18.28,7.88l-5.34,9c-6.38-3.38-12.38-6.19-18-8.44Z"/>
      <polygon class="cls-1" points="268.87 169.38 273.94 165.44 280.41 173.03 275.62 177.25 268.87 169.38"/>
      <polygon class="cls-3" points="276.19 163.47 280.97 159.53 287.44 166.84 282.37 171.06 276.19 163.47"/>
      <path class="cls-3" d="M301.5,187.38v-10.12h25.59v-15.47h10.41v15.47h21.94v10.12h-21.94c-.56,16.5-7.97,28.22-22.22,35.16l-7.88-8.72c6.93-2.81,11.9-6.19,14.91-10.12,2.81-3.94,4.31-9.37,4.5-16.31h-25.31Z"/>
      <path class="cls-1" d="M371.53,210.44c9.18-6.37,13.78-14.72,13.78-25.03v-19.69h10.41v16.59c0,7.5-1.31,14.44-3.94,20.81-3,6.94-7.31,12.28-12.94,16.03l-7.31-8.72Z"/>
      <path class="cls-3" d="M400.78,212.97l.84-1.12v-48.38h10.69v39.66c4.5-4.12,9.65-10.31,15.47-18.56l6.75,9.28c-7.31,9.75-16.03,18.66-26.16,26.72l-7.59-7.59Z"/>
      <path class="cls-3" d="M135.7,263.37v21.94c11.06-2.62,20.9-6.56,29.53-11.81l7.59,7.31c-10.5,6.57-22.88,11.53-37.12,14.91v10.41c0,2.81,1.59,4.22,4.78,4.22,8.81,0,19.69-.09,32.62-.28l-1.41,10.12h-35.72c-3.75,0-6.47-.84-8.16-2.53-1.5-1.69-2.25-4.4-2.25-8.16v-46.12h10.12Z"/>
      <path class="cls-1" d="M172.26,275.18c-2.07,0-3.85-.75-5.34-2.25-1.12-1.12-1.69-2.53-1.69-4.22,0-1.87.47-3.38,1.41-4.5,1.5-1.69,3.28-2.53,5.34-2.53s3.84.84,5.34,2.53c.94,1.12,1.41,2.53,1.41,4.22,0,1.88-.56,3.38-1.69,4.5-1.12,1.31-2.72,2.07-4.78,2.25Z"/>
      <path class="cls-2" d="M173.95,270.4c.56-.56.84-1.22.84-1.97s-.28-1.41-.84-1.97-1.22-.84-1.97-.84-1.41.28-1.97.84-.84,1.22-.84,1.97.28,1.41.84,1.97,1.22.84,1.97.84,1.41-.28,1.97-.84Z"/>
      <path class="cls-3" d="M191.95,291.49c9.37-7.69,16.5-17.44,21.38-29.25l10.12,3.94-2.53,5.91h16.88l.84-1.12,8.16,5.06c-6.94,21.94-19.69,37.88-38.25,47.81l-7.88-8.44c16.5-8.44,27.28-19.78,32.34-34.03h-17.72c-3.94,6-8.91,11.72-14.91,17.16l-8.44-7.03Z"/>
      <path class="cls-3" d="M260.86,311.18c9.18-6.37,13.78-14.72,13.78-25.03v-19.69h10.41v16.59c0,7.5-1.31,14.44-3.94,20.81-3,6.94-7.31,12.28-12.94,16.03l-7.31-8.72Z"/>
      <path class="cls-3" d="M290.11,313.71l.84-1.12v-48.38h10.69v39.66c4.5-4.12,9.65-10.31,15.47-18.56l6.75,9.28c-7.31,9.75-16.03,18.66-26.16,26.72l-7.59-7.59Z"/>
      <path class="cls-3" d="M367.39,300.94c-.07-.05-.14-.11-.22-.17-7.13,8.25-16.13,14.72-27,19.41l-6.75-10.41c9.94-4.12,17.81-9,23.62-14.62,6.19-5.81,10.69-12.84,13.5-21.09h-30.66v-9.84h37.12l1.41-.84,6.47,5.62c-5.06,11.25-8.82,18.84-11.25,22.78.62.51,1.21,1.03,1.82,1.54-2.39,2.85-6.19,4.28-8.07,7.63Z"/>
      <path class="cls-1" d="M373.64,291.78c-1.72,3.17-3.49,6.02-6.47,9,6.48,4.85,12.81,11.15,18.56,18.56l8.44-8.72c-5.84-6.01-13.91-13.3-20.53-18.84Z"/>
    </g>
  </g>
</svg>